<svg version="1.0" xmlns="http://www.w3.org/2000/svg" width="156.000000pt" height="32.000000pt" viewBox="0 0 156.000000 32.000000" preserveAspectRatio="xMidYMid meet" style="width: 145px; height: auto;"> <g transform="translate(0.000000,32.000000) scale(0.100000,-0.100000)" fill="#000000" stroke="none" class="">  <path d="M1468 272 c-18 -2 -42 -20 -68 -50 l-40 -47 6 48 c7 46 6 47 -20 47 l-26 0 0 -105 0 -105 25 0 c23 0 25 4 25 45 0 25 4 45 10 45 5 0 23 -20 40 -45 22 -33 38 -45 55 -45 14 0 25 2 25 5 0 2 -18 30 -40 61 l-40 58 42 43 c23 23 40 44 37 46 -2 1 -16 1 -31 -1z" class=""></path> <path d="M110 165 l0 -105 25 0 c26 0 26 1 20 62 -3 35 -8 74 -11 88 -3 21 24 -24 78 -128 7 -15 20 -22 40 -22 l28 0 0 105 0 105 -26 0 -27 0 5 -77 c5 -66 3 -74 -8 -58 -8 10 -14 22 -14 27 0 4 -14 30 -31 58 -23 38 -37 50 -55 50 -24 0 -24 -1 -24 -105z"></path> <path d="M320 165 l0 -105 80 0 c73 0 80 2 80 20 0 18 -7 20 -55 20 -52 0 -55 1 -55 25 0 23 3 25 50 25 43 0 50 3 50 20 0 17 -7 20 -50 20 -43 0 -50 3 -50 20 0 18 7 20 55 20 48 0 55 2 55 20 0 18 -7 20 -80 20 l-80 0 0 -105z"></path> <path d="M500 250 c0 -16 7 -20 35 -20 19 0 35 -4 35 -10 0 -5 -9 -10 -20 -10 -13 0 -20 -7 -20 -20 0 -11 7 -20 15 -20 12 0 15 -13 15 -55 0 -52 1 -55 25 -55 24 0 25 3 25 55 0 42 3 55 15 55 8 0 15 9 15 20 0 11 -7 20 -15 20 -8 0 -15 5 -15 10 0 6 15 10 34 10 29 0 33 3 29 20 -5 18 -14 20 -89 20 -77 0 -84 -2 -84 -20z m95 -49 c3 -5 1 -12 -5 -16 -5 -3 -10 1 -10 9 0 18 6 21 15 7z"></path> <path d="M700 165 l0 -105 26 0 c24 0 26 3 22 40 -3 39 -3 40 28 40 34 0 44 -13 44 -56 0 -19 5 -24 25 -24 21 0 25 5 25 30 0 17 -9 39 -20 50 -19 19 -19 20 0 30 26 14 26 54 0 80 -16 16 -33 20 -85 20 l-65 0 0 -105z m118 38 c3 -17 -3 -24 -22 -29 -36 -9 -49 -1 -51 30 -1 25 2 27 35 24 27 -2 36 -8 38 -25z"></path> <path d="M932 188 c-48 -134 -47 -128 -18 -128 19 0 26 5 26 20 0 17 7 20 45 20 38 0 45 -3 45 -20 0 -15 7 -20 29 -20 l29 0 -38 103 c-33 89 -41 102 -63 105 -23 3 -27 -4 -55 -80z m78 -50 c0 -5 -12 -8 -26 -8 -23 0 -25 3 -20 23 4 12 9 35 13 51 6 29 6 29 19 -15 8 -24 14 -47 14 -51z"></path> <path d="M1144 255 c-71 -49 -47 -182 36 -200 46 -10 109 25 110 63 0 20 -44 14 -58 -8 -38 -62 -107 34 -72 101 13 23 68 26 76 4 8 -19 54 -20 54 -1 0 44 -102 73 -146 41z"></path>   </g> </svg>